<svg width="434" height="80" viewBox="0 0 434 80" fill="none" xmlns="http://www.w3.org/2000/svg">
<g clip-path="url(#clip0_791_1509)">
<path d="M56.8095 65.5428L0 0H434L377.19 65.5428C369.285 74.7266 357.825 80 345.775 80H88.2251C76.1746 80 64.7154 74.7266 56.8095 65.5428Z" fill="#0C0D13"/>
<path d="M0 0L56.8095 65.5428C64.7154 74.7266 76.1746 80 88.2251 80H345.775C357.825 80 369.285 74.7266 377.19 65.5428L434 0H430.001L374.919 63.5493C367.585 72.0692 356.954 76.9614 345.775 76.9614H88.2251C77.0457 76.9614 66.4149 72.0692 59.0805 63.5493L3.99887 0H0Z" fill="#F4D56F"/>
</g>
<defs>
<clipPath id="clip0_791_1509">
<rect width="434" height="80" fill="white"/>
</clipPath>
</defs>
</svg>
